<svg xmlns="http://www.w3.org/2000/svg" xmlns:xlink="http://www.w3.org/1999/xlink" width="500" zoomAndPan="magnify" viewBox="0 0 375 374.999991" height="500" preserveAspectRatio="xMidYMid meet" version="1.0"><defs><filter x="0%" y="0%" width="100%" height="100%" id="458a580713"><feColorMatrix values="0 0 0 0 1 0 0 0 0 1 0 0 0 0 1 0 0 0 1 0" color-interpolation-filters="sRGB"/></filter><g/><clipPath id="ac262b85c0"><path d="M 126 78.125 L 227 78.125 L 227 236 L 126 236 Z M 126 78.125 " clip-rule="nonzero"/></clipPath><clipPath id="fe022afd26"><path d="M 144 154 L 237.980469 154 L 237.980469 232 L 144 232 Z M 144 154 " clip-rule="nonzero"/></clipPath><clipPath id="ed422b7bb3"><path d="M 162.726562 140.128906 L 232.476562 140.128906 L 232.476562 197.878906 L 162.726562 197.878906 Z M 162.726562 140.128906 " clip-rule="nonzero"/></clipPath><clipPath id="1562c3f26e"><path d="M 155.78125 153 L 166 153 L 166 162.628906 L 155.78125 162.628906 Z M 155.78125 153 " clip-rule="nonzero"/></clipPath><clipPath id="8ec2da886c"><path d="M 162 140.128906 L 179 140.128906 L 179 157 L 162 157 Z M 162 140.128906 " clip-rule="nonzero"/></clipPath><clipPath id="0ed7b36bee"><path d="M 217.53125 140.128906 L 240.78125 140.128906 L 240.78125 162.628906 L 217.53125 162.628906 Z M 217.53125 140.128906 " clip-rule="nonzero"/></clipPath><clipPath id="9ef44e94ba"><path d="M 13 13 L 23.59375 13 L 23.59375 22.628906 L 13 22.628906 Z M 13 13 " clip-rule="nonzero"/></clipPath><clipPath id="8dd26a3d43"><path d="M 0.53125 0.160156 L 18 0.160156 L 18 17 L 0.53125 17 Z M 0.53125 0.160156 " clip-rule="nonzero"/></clipPath><clipPath id="6cfe1df489"><rect x="0" width="24" y="0" height="23"/></clipPath><mask id="36104a2cbd"><g filter="url(#458a580713)"><rect x="-37.5" width="450" fill="#000000" y="-37.499999" height="449.999989" fill-opacity="0.49"/></g></mask><clipPath id="a788b0ab45"><path d="M 1 2 L 17 2 L 17 19 L 1 19 Z M 1 2 " clip-rule="nonzero"/></clipPath><clipPath id="3bb6589187"><path d="M 0.59375 5.214844 L 13.449219 1.101562 L 18.25 16.105469 L 5.390625 20.21875 Z M 0.59375 5.214844 " clip-rule="nonzero"/></clipPath><clipPath id="2de05da309"><path d="M 0.59375 5.214844 L 13.449219 1.101562 L 18.25 16.105469 L 5.390625 20.21875 Z M 0.59375 5.214844 " clip-rule="nonzero"/></clipPath><clipPath id="63366c9c15"><path d="M 5 6 L 14 6 L 14 15 L 5 15 Z M 5 6 " clip-rule="nonzero"/></clipPath><clipPath id="89e9f3d69f"><path d="M 0.59375 5.214844 L 13.449219 1.101562 L 18.25 16.105469 L 5.390625 20.21875 Z M 0.59375 5.214844 " clip-rule="nonzero"/></clipPath><clipPath id="fbfbf53f8f"><path d="M 0.59375 5.214844 L 13.449219 1.101562 L 18.25 16.105469 L 5.390625 20.21875 Z M 0.59375 5.214844 " clip-rule="nonzero"/></clipPath><clipPath id="dfc50fe71f"><path d="M 12.539062 8.019531 L 9.914062 8.859375 L 9.074219 6.234375 L 6.914062 6.925781 L 7.753906 9.550781 L 5.125 10.390625 L 5.816406 12.550781 L 8.445312 11.710938 L 9.285156 14.335938 L 11.441406 13.644531 L 10.601562 11.019531 L 13.230469 10.179688 Z M 12.539062 8.019531 " clip-rule="nonzero"/></clipPath><linearGradient x1="212.60001" gradientTransform="matrix(0.0640149, -0.0204753, 0.0204753, 0.0640149, -8.677291, 1.364095)" y1="131.583097" x2="212.60001" gradientUnits="userSpaceOnUse" y2="283.148232" id="cd9083361c"><stop stop-opacity="1" stop-color="rgb(0%, 62.348938%, 57.649231%)" offset="0"/><stop stop-opacity="1" stop-color="rgb(0%, 62.348938%, 57.649231%)" offset="0.125"/><stop stop-opacity="1" stop-color="rgb(0%, 62.358093%, 57.678223%)" offset="0.1875"/><stop stop-opacity="1" stop-color="rgb(0%, 62.399292%, 57.814026%)" offset="0.195312"/><stop stop-opacity="1" stop-color="rgb(0%, 62.466431%, 58.027649%)" offset="0.203125"/><stop stop-opacity="1" stop-color="rgb(0%, 62.532043%, 58.239746%)" offset="0.210938"/><stop stop-opacity="1" stop-color="rgb(0%, 62.597656%, 58.453369%)" offset="0.21875"/><stop stop-opacity="1" stop-color="rgb(0%, 62.663269%, 58.666992%)" offset="0.226562"/><stop stop-opacity="1" stop-color="rgb(0%, 62.728882%, 58.879089%)" offset="0.234375"/><stop stop-opacity="1" stop-color="rgb(0%, 62.796021%, 59.092712%)" offset="0.242188"/><stop stop-opacity="1" stop-color="rgb(0%, 62.861633%, 59.30481%)" offset="0.25"/><stop stop-opacity="1" stop-color="rgb(0%, 62.927246%, 59.518433%)" offset="0.257812"/><stop stop-opacity="1" stop-color="rgb(0%, 62.992859%, 59.73053%)" offset="0.265625"/><stop stop-opacity="1" stop-color="rgb(0%, 63.059998%, 59.944153%)" offset="0.273438"/><stop stop-opacity="1" stop-color="rgb(0%, 63.12561%, 60.157776%)" offset="0.28125"/><stop stop-opacity="1" stop-color="rgb(0%, 63.191223%, 60.369873%)" offset="0.289062"/><stop stop-opacity="1" stop-color="rgb(0%, 63.256836%, 60.583496%)" offset="0.296875"/><stop stop-opacity="1" stop-color="rgb(0%, 63.322449%, 60.795593%)" offset="0.304688"/><stop stop-opacity="1" stop-color="rgb(0%, 63.389587%, 61.009216%)" offset="0.3125"/><stop stop-opacity="1" stop-color="rgb(0%, 63.4552%, 61.221313%)" offset="0.320313"/><stop stop-opacity="1" stop-color="rgb(0%, 63.520813%, 61.434937%)" offset="0.328125"/><stop stop-opacity="1" stop-color="rgb(0%, 63.586426%, 61.647034%)" offset="0.335938"/><stop stop-opacity="1" stop-color="rgb(0%, 63.653564%, 61.860657%)" offset="0.34375"/><stop stop-opacity="1" stop-color="rgb(0%, 63.719177%, 62.07428%)" offset="0.351562"/><stop stop-opacity="1" stop-color="rgb(0%, 63.78479%, 62.286377%)" offset="0.359375"/><stop stop-opacity="1" stop-color="rgb(0%, 63.850403%, 62.5%)" offset="0.367188"/><stop stop-opacity="1" stop-color="rgb(0%, 63.916016%, 62.712097%)" offset="0.375"/><stop stop-opacity="1" stop-color="rgb(0%, 63.983154%, 62.92572%)" offset="0.382812"/><stop stop-opacity="1" stop-color="rgb(0%, 64.048767%, 63.137817%)" offset="0.390625"/><stop stop-opacity="1" stop-color="rgb(0%, 64.11438%, 63.35144%)" offset="0.398438"/><stop stop-opacity="1" stop-color="rgb(0%, 64.179993%, 63.565063%)" offset="0.40625"/><stop stop-opacity="1" stop-color="rgb(0%, 64.245605%, 63.777161%)" offset="0.414062"/><stop stop-opacity="1" stop-color="rgb(0%, 64.312744%, 63.990784%)" offset="0.421875"/><stop stop-opacity="1" stop-color="rgb(0%, 64.378357%, 64.202881%)" offset="0.429688"/><stop stop-opacity="1" stop-color="rgb(0%, 64.44397%, 64.416504%)" offset="0.4375"/><stop stop-opacity="1" stop-color="rgb(0%, 64.509583%, 64.628601%)" offset="0.445312"/><stop stop-opacity="1" stop-color="rgb(0%, 64.576721%, 64.842224%)" offset="0.453125"/><stop stop-opacity="1" stop-color="rgb(0%, 64.642334%, 65.055847%)" offset="0.460938"/><stop stop-opacity="1" stop-color="rgb(0%, 64.707947%, 65.267944%)" offset="0.46875"/><stop stop-opacity="1" stop-color="rgb(0%, 64.77356%, 65.481567%)" offset="0.476562"/><stop stop-opacity="1" stop-color="rgb(0%, 64.839172%, 65.693665%)" offset="0.484375"/><stop stop-opacity="1" stop-color="rgb(0%, 64.906311%, 65.907288%)" offset="0.492188"/><stop stop-opacity="1" stop-color="rgb(0%, 64.971924%, 66.119385%)" offset="0.5"/><stop stop-opacity="1" stop-color="rgb(0%, 65.037537%, 66.333008%)" offset="0.507812"/><stop stop-opacity="1" stop-color="rgb(0%, 65.103149%, 66.546631%)" offset="0.515625"/><stop stop-opacity="1" stop-color="rgb(0%, 65.170288%, 66.758728%)" offset="0.523438"/><stop stop-opacity="1" stop-color="rgb(0%, 65.235901%, 66.972351%)" offset="0.53125"/><stop stop-opacity="1" stop-color="rgb(0%, 65.301514%, 67.184448%)" offset="0.539062"/><stop stop-opacity="1" stop-color="rgb(0%, 65.367126%, 67.398071%)" offset="0.546875"/><stop stop-opacity="1" stop-color="rgb(0%, 65.432739%, 67.610168%)" offset="0.554688"/><stop stop-opacity="1" stop-color="rgb(0%, 65.499878%, 67.823792%)" offset="0.5625"/><stop stop-opacity="1" stop-color="rgb(0%, 65.565491%, 68.035889%)" offset="0.570312"/><stop stop-opacity="1" stop-color="rgb(0%, 65.631104%, 68.249512%)" offset="0.578125"/><stop stop-opacity="1" stop-color="rgb(0%, 65.696716%, 68.463135%)" offset="0.585938"/><stop stop-opacity="1" stop-color="rgb(0%, 65.762329%, 68.675232%)" offset="0.59375"/><stop stop-opacity="1" stop-color="rgb(0%, 65.829468%, 68.888855%)" offset="0.601562"/><stop stop-opacity="1" stop-color="rgb(0%, 65.895081%, 69.100952%)" offset="0.609375"/><stop stop-opacity="1" stop-color="rgb(0%, 65.960693%, 69.314575%)" offset="0.617188"/><stop stop-opacity="1" stop-color="rgb(0%, 66.026306%, 69.526672%)" offset="0.625"/><stop stop-opacity="1" stop-color="rgb(0%, 66.093445%, 69.740295%)" offset="0.632813"/><stop stop-opacity="1" stop-color="rgb(0%, 66.159058%, 69.953918%)" offset="0.640625"/><stop stop-opacity="1" stop-color="rgb(0%, 66.22467%, 70.166016%)" offset="0.648438"/><stop stop-opacity="1" stop-color="rgb(0%, 66.290283%, 70.379639%)" offset="0.65625"/><stop stop-opacity="1" stop-color="rgb(0%, 66.355896%, 70.591736%)" offset="0.664063"/><stop stop-opacity="1" stop-color="rgb(0%, 66.423035%, 70.805359%)" offset="0.671875"/><stop stop-opacity="1" stop-color="rgb(0%, 66.488647%, 71.017456%)" offset="0.679688"/><stop stop-opacity="1" stop-color="rgb(0%, 66.55426%, 71.231079%)" offset="0.6875"/><stop stop-opacity="1" stop-color="rgb(0%, 66.619873%, 71.444702%)" offset="0.695312"/><stop stop-opacity="1" stop-color="rgb(0%, 66.687012%, 71.656799%)" offset="0.703125"/><stop stop-opacity="1" stop-color="rgb(0%, 66.752625%, 71.870422%)" offset="0.710938"/><stop stop-opacity="1" stop-color="rgb(0%, 66.818237%, 72.08252%)" offset="0.71875"/><stop stop-opacity="1" stop-color="rgb(0%, 66.88385%, 72.296143%)" offset="0.726562"/><stop stop-opacity="1" stop-color="rgb(0%, 66.949463%, 72.50824%)" offset="0.734375"/><stop stop-opacity="1" stop-color="rgb(0%, 67.016602%, 72.721863%)" offset="0.742188"/><stop stop-opacity="1" stop-color="rgb(0%, 67.082214%, 72.935486%)" offset="0.75"/><stop stop-opacity="1" stop-color="rgb(0%, 67.147827%, 73.147583%)" offset="0.757812"/><stop stop-opacity="1" stop-color="rgb(0%, 67.21344%, 73.361206%)" offset="0.765625"/><stop stop-opacity="1" stop-color="rgb(0%, 67.279053%, 73.573303%)" offset="0.773438"/><stop stop-opacity="1" stop-color="rgb(0%, 67.346191%, 73.786926%)" offset="0.78125"/><stop stop-opacity="1" stop-color="rgb(0%, 67.414856%, 74.006653%)" offset="0.8125"/><stop stop-opacity="1" stop-color="rgb(0%, 67.449951%, 74.119568%)" offset="0.875"/><stop stop-opacity="1" stop-color="rgb(0%, 67.449951%, 74.119568%)" offset="1"/></linearGradient><clipPath id="80c810ae63"><rect x="0" width="19" y="0" height="21"/></clipPath><clipPath id="938ebf16fb"><rect x="0" width="119" y="0" height="45"/></clipPath><clipPath id="8354758750"><rect x="0" width="121" y="0" height="10"/></clipPath></defs><rect x="-37.5" width="450" fill="#ffffff" y="-37.499999" height="449.999989" fill-opacity="1"/><rect x="-37.5" width="450" fill="#ffffff" y="-37.499999" height="449.999989" fill-opacity="1"/><g clip-path="url(#ac262b85c0)"><path fill="#39ab4a" d="M 178.667969 233.136719 C 182.132812 234.351562 185.664062 235.210938 189.164062 235.753906 C 181.5625 236.328125 173.738281 235.371094 166.074219 232.722656 C 135.890625 222.257812 119.480469 189.074219 129.914062 158.765625 C 131.503906 154.140625 133.15625 150.4375 136.019531 145.8125 C 156.820312 107.8125 138.277344 78.171875 138.277344 78.171875 C 138.277344 78.171875 162.289062 95.527344 154.050781 128.773438 C 168.394531 119.710938 186.554688 117 203.824219 123 C 212.761719 126.09375 220.457031 131.167969 226.597656 137.578125 C 222.652344 135.027344 218.328125 132.921875 213.683594 131.292969 C 183.949219 120.988281 152.015625 135.441406 142.316406 163.582031 C 132.679688 191.691406 148.929688 222.832031 178.667969 233.136719 Z M 178.667969 233.136719 " fill-opacity="1" fill-rule="nonzero"/></g><path fill="#39ab4a" d="M 185.515625 96.359375 C 185.820312 96.988281 186.0625 97.640625 186.238281 98.316406 C 186.417969 98.996094 186.527344 99.683594 186.570312 100.378906 C 186.609375 101.078125 186.585938 101.773438 186.488281 102.46875 C 186.394531 103.160156 186.234375 103.839844 186.007812 104.5 C 185.777344 105.160156 185.488281 105.792969 185.136719 106.398438 C 184.785156 107.003906 184.378906 107.566406 183.914062 108.089844 C 183.453125 108.613281 182.941406 109.085938 182.386719 109.511719 C 181.832031 109.933594 181.242188 110.296875 180.613281 110.605469 C 179.984375 110.910156 179.335938 111.152344 178.660156 111.328125 C 177.984375 111.507812 177.300781 111.617188 176.605469 111.660156 C 175.910156 111.699219 175.214844 111.675781 174.523438 111.578125 C 173.832031 111.484375 173.15625 111.324219 172.5 111.09375 C 171.839844 110.867188 171.207031 110.574219 170.605469 110.222656 C 170.003906 109.871094 169.441406 109.460938 168.917969 108.996094 C 168.398438 108.53125 167.925781 108.023438 167.503906 107.464844 C 167.082031 106.90625 166.71875 106.3125 166.414062 105.683594 C 166.109375 105.054688 165.867188 104.402344 165.691406 103.726562 C 165.511719 103.050781 165.402344 102.363281 165.363281 101.664062 C 165.320312 100.964844 165.347656 100.269531 165.441406 99.574219 C 165.535156 98.882812 165.695312 98.203125 165.925781 97.542969 C 166.152344 96.882812 166.441406 96.25 166.792969 95.644531 C 167.144531 95.039062 167.554688 94.476562 168.015625 93.953125 C 168.476562 93.429688 168.988281 92.957031 169.542969 92.535156 C 170.097656 92.109375 170.691406 91.746094 171.316406 91.441406 C 171.945312 91.132812 172.59375 90.890625 173.269531 90.714844 C 173.945312 90.535156 174.628906 90.425781 175.324219 90.382812 C 176.023438 90.34375 176.714844 90.367188 177.40625 90.464844 C 178.097656 90.558594 178.773438 90.71875 179.433594 90.949219 C 180.089844 91.175781 180.722656 91.46875 181.324219 91.820312 C 181.925781 92.171875 182.488281 92.582031 183.011719 93.046875 C 183.53125 93.511719 184.003906 94.019531 184.425781 94.578125 C 184.847656 95.136719 185.210938 95.730469 185.515625 96.359375 Z M 185.515625 96.359375 " fill-opacity="1" fill-rule="nonzero"/><g clip-path="url(#fe022afd26)"><path fill="#009f93" d="M 231.175781 203.144531 C 217.148438 221.621094 207.671875 218.972656 198.894531 216.898438 C 198.894531 216.898438 210.820312 215.875 215.179688 208.125 C 216.863281 205.125 213.398438 202.636719 209.773438 206.304688 C 206.144531 209.972656 196.605469 207.421875 190.976562 206.878906 C 185.347656 206.335938 180.257812 205.316406 176.15625 214.503906 C 154.433594 202.828125 143.8125 178.515625 151.667969 155.671875 C 151.792969 155.320312 151.921875 154.9375 152.046875 154.585938 C 149.917969 157.808594 148.167969 161.316406 146.863281 165.113281 C 138.054688 190.703125 153.003906 219.195312 180.226562 228.640625 C 189.988281 232.019531 199.53125 232.148438 208.847656 229.628906 C 222.207031 225.992188 232.351562 214.761719 237.980469 201.296875 C 235.53125 200.339844 232.734375 201.074219 231.175781 203.144531 Z M 231.175781 203.144531 " fill-opacity="1" fill-rule="nonzero"/></g><g clip-path="url(#ed422b7bb3)"><path fill="#000000" d="M 163.867188 197.058594 L 186.566406 197.058594 L 186.566406 187.601562 C 186.566406 187.296875 186.820312 187.039062 187.128906 187.039062 C 187.433594 187.039062 187.6875 187.296875 187.6875 187.601562 L 187.6875 197.058594 L 189.339844 197.058594 L 189.339844 187.601562 C 189.339844 187.296875 189.582031 187.039062 189.902344 187.039062 C 190.207031 187.039062 190.460938 187.296875 190.460938 187.601562 L 190.460938 197.058594 L 204.574219 197.058594 L 204.574219 187.601562 C 204.574219 187.296875 204.820312 187.039062 205.136719 187.039062 C 205.445312 187.039062 205.699219 187.296875 205.699219 187.601562 L 205.699219 197.058594 L 207.339844 197.058594 L 207.339844 187.601562 C 207.339844 187.296875 207.59375 187.039062 207.898438 187.039062 C 208.21875 187.039062 208.460938 187.296875 208.460938 187.601562 L 208.460938 197.058594 L 231.160156 197.058594 L 231.160156 165.527344 L 214.515625 165.527344 C 214.210938 165.527344 213.957031 165.285156 213.957031 164.964844 L 213.957031 141.25 L 181.070312 141.25 L 181.070312 164.964844 C 181.070312 165.285156 180.816406 165.527344 180.511719 165.527344 L 163.867188 165.527344 Z M 167.433594 182.394531 L 175.542969 182.394531 L 175.542969 167.71875 L 167.433594 167.71875 Z M 176.09375 183.515625 L 166.875 183.515625 C 166.554688 183.515625 166.3125 183.261719 166.3125 182.953125 L 166.3125 167.15625 C 166.3125 166.851562 166.554688 166.597656 166.875 166.597656 L 176.09375 166.597656 C 176.414062 166.597656 176.65625 166.851562 176.65625 167.15625 L 176.65625 182.953125 C 176.65625 183.261719 176.414062 183.515625 176.09375 183.515625 Z M 202.445312 151.074219 L 209.679688 151.074219 L 209.679688 143.84375 L 202.445312 143.84375 Z M 210.175781 152.070312 L 201.949219 152.070312 C 201.675781 152.070312 201.453125 151.847656 201.453125 151.574219 L 201.453125 143.347656 C 201.453125 143.070312 201.675781 142.839844 201.949219 142.839844 L 210.175781 142.839844 C 210.453125 142.839844 210.671875 143.070312 210.671875 143.347656 L 210.671875 151.574219 C 210.671875 151.847656 210.453125 152.070312 210.175781 152.070312 Z M 202.445312 162.457031 L 209.679688 162.457031 L 209.679688 155.234375 L 202.445312 155.234375 Z M 210.175781 163.460938 L 201.949219 163.460938 C 201.675781 163.460938 201.453125 163.238281 201.453125 162.953125 L 201.453125 154.726562 C 201.453125 154.453125 201.675781 154.230469 201.949219 154.230469 L 210.175781 154.230469 C 210.453125 154.230469 210.671875 154.453125 210.671875 154.726562 L 210.671875 162.953125 C 210.671875 163.238281 210.453125 163.460938 210.175781 163.460938 Z M 186.152344 151.074219 L 193.382812 151.074219 L 193.382812 143.84375 L 186.152344 143.84375 Z M 193.882812 152.070312 L 185.65625 152.070312 C 185.378906 152.070312 185.15625 151.847656 185.15625 151.574219 L 185.15625 143.347656 C 185.15625 143.070312 185.378906 142.839844 185.65625 142.839844 L 193.882812 142.839844 C 194.15625 142.839844 194.390625 143.070312 194.390625 143.347656 L 194.390625 151.574219 C 194.390625 151.847656 194.15625 152.070312 193.882812 152.070312 Z M 186.152344 162.457031 L 193.382812 162.457031 L 193.382812 155.234375 L 186.152344 155.234375 Z M 193.882812 163.460938 L 185.65625 163.460938 C 185.378906 163.460938 185.15625 163.238281 185.15625 162.953125 L 185.15625 154.726562 C 185.15625 154.453125 185.378906 154.230469 185.65625 154.230469 L 193.882812 154.230469 C 194.15625 154.230469 194.390625 154.453125 194.390625 154.726562 L 194.390625 162.953125 C 194.390625 163.238281 194.15625 163.460938 193.882812 163.460938 Z M 214.515625 195.574219 C 214.210938 195.574219 213.957031 195.320312 213.957031 195.011719 L 213.957031 185.78125 C 213.957031 185.472656 214.210938 185.21875 214.515625 185.21875 C 214.835938 185.21875 215.078125 185.472656 215.078125 185.78125 L 215.078125 195.011719 C 215.078125 195.320312 214.835938 195.574219 214.515625 195.574219 Z M 214.515625 184.011719 C 214.210938 184.011719 213.957031 183.757812 213.957031 183.453125 L 213.957031 167.15625 C 213.957031 166.851562 214.210938 166.597656 214.515625 166.597656 C 214.835938 166.597656 215.078125 166.851562 215.078125 167.15625 L 215.078125 183.453125 C 215.078125 183.757812 214.835938 184.011719 214.515625 184.011719 Z M 180.511719 195.574219 C 180.203125 195.574219 179.949219 195.320312 179.949219 195.011719 L 179.949219 185.78125 C 179.949219 185.472656 180.203125 185.21875 180.511719 185.21875 C 180.816406 185.21875 181.070312 185.472656 181.070312 185.78125 L 181.070312 195.011719 C 181.070312 195.320312 180.816406 195.574219 180.511719 195.574219 Z M 180.511719 184.011719 C 180.203125 184.011719 179.949219 183.757812 179.949219 183.453125 L 179.949219 167.15625 C 179.949219 166.851562 180.203125 166.597656 180.511719 166.597656 C 180.816406 166.597656 181.070312 166.851562 181.070312 167.15625 L 181.070312 183.453125 C 181.070312 183.757812 180.816406 184.011719 180.511719 184.011719 Z M 182.882812 185.21875 L 212.15625 185.21875 L 212.15625 184.011719 L 182.882812 184.011719 Z M 212.71875 186.34375 L 182.320312 186.34375 C 182.003906 186.34375 181.757812 186.089844 181.757812 185.78125 L 181.757812 183.453125 C 181.757812 183.144531 182.003906 182.890625 182.320312 182.890625 L 212.71875 182.890625 C 213.023438 182.890625 213.277344 183.144531 213.277344 183.453125 L 213.277344 185.78125 C 213.277344 186.089844 213.023438 186.34375 212.71875 186.34375 Z M 195.511719 179.566406 L 199.515625 179.566406 L 199.515625 175.964844 C 199.515625 175.648438 199.769531 175.40625 200.074219 175.40625 L 203.675781 175.40625 L 203.675781 171.402344 L 200.074219 171.402344 C 199.769531 171.402344 199.515625 171.148438 199.515625 170.84375 L 199.515625 167.242188 L 195.511719 167.242188 L 195.511719 170.84375 C 195.511719 171.148438 195.269531 171.402344 194.949219 171.402344 L 191.363281 171.402344 L 191.363281 175.40625 L 194.949219 175.40625 C 195.269531 175.40625 195.511719 175.648438 195.511719 175.964844 Z M 200.074219 180.6875 L 194.949219 180.6875 C 194.644531 180.6875 194.402344 180.433594 194.402344 180.128906 L 194.402344 176.527344 L 190.800781 176.527344 C 190.484375 176.527344 190.238281 176.273438 190.238281 175.964844 L 190.238281 170.84375 C 190.238281 170.535156 190.484375 170.28125 190.800781 170.28125 L 194.402344 170.28125 L 194.402344 166.679688 C 194.402344 166.375 194.644531 166.121094 194.949219 166.121094 L 200.074219 166.121094 C 200.382812 166.121094 200.636719 166.375 200.636719 166.679688 L 200.636719 170.28125 L 204.238281 170.28125 C 204.542969 170.28125 204.796875 170.535156 204.796875 170.84375 L 204.796875 175.964844 C 204.796875 176.273438 204.542969 176.527344 204.238281 176.527344 L 200.636719 176.527344 L 200.636719 180.128906 C 200.636719 180.433594 200.382812 180.6875 200.074219 180.6875 Z M 219.492188 194.453125 L 227.59375 194.453125 L 227.59375 186.34375 L 219.492188 186.34375 Z M 228.152344 195.574219 L 218.933594 195.574219 C 218.613281 195.574219 218.371094 195.320312 218.371094 195.011719 L 218.371094 185.78125 C 218.371094 185.472656 218.613281 185.21875 218.933594 185.21875 L 228.152344 185.21875 C 228.472656 185.21875 228.714844 185.472656 228.714844 185.78125 L 228.714844 195.011719 C 228.714844 195.320312 228.472656 195.574219 228.152344 195.574219 Z M 219.492188 182.394531 L 227.59375 182.394531 L 227.59375 167.71875 L 219.492188 167.71875 Z M 228.152344 183.515625 L 218.933594 183.515625 C 218.613281 183.515625 218.371094 183.261719 218.371094 182.953125 L 218.371094 167.15625 C 218.371094 166.851562 218.613281 166.597656 218.933594 166.597656 L 228.152344 166.597656 C 228.472656 166.597656 228.714844 166.851562 228.714844 167.15625 L 228.714844 182.953125 C 228.714844 183.261719 228.472656 183.515625 228.152344 183.515625 Z M 167.433594 194.453125 L 175.542969 194.453125 L 175.542969 186.34375 L 167.433594 186.34375 Z M 176.105469 195.574219 L 166.875 195.574219 C 166.566406 195.574219 166.3125 195.320312 166.3125 195.011719 L 166.3125 185.78125 C 166.3125 185.472656 166.566406 185.21875 166.875 185.21875 L 176.105469 185.21875 C 176.414062 185.21875 176.667969 185.472656 176.667969 185.78125 L 176.667969 195.011719 C 176.667969 195.320312 176.414062 195.574219 176.105469 195.574219 Z M 231.722656 198.179688 L 163.304688 198.179688 C 163 198.179688 162.742188 197.933594 162.742188 197.617188 L 162.742188 164.964844 C 162.742188 164.660156 163 164.40625 163.304688 164.40625 L 179.949219 164.40625 L 179.949219 140.6875 C 179.949219 140.382812 180.203125 140.128906 180.511719 140.128906 L 214.515625 140.128906 C 214.835938 140.128906 215.078125 140.382812 215.078125 140.6875 L 215.078125 164.40625 L 231.722656 164.40625 C 232.039062 164.40625 232.28125 164.660156 232.28125 164.964844 L 232.28125 197.617188 C 232.28125 197.933594 232.039062 198.179688 231.722656 198.179688 Z M 231.722656 198.179688 " fill-opacity="1" fill-rule="nonzero"/></g><path fill="#39ab4a" d="M 175.066406 186.820312 L 167.910156 186.820312 L 167.910156 193.976562 L 175.066406 193.976562 Z M 195.988281 179.089844 L 199.039062 179.089844 L 199.039062 175.964844 C 199.039062 175.394531 199.503906 174.929688 200.074219 174.929688 L 203.199219 174.929688 L 203.199219 171.878906 L 200.074219 171.878906 C 199.503906 171.878906 199.039062 171.414062 199.039062 170.84375 L 199.039062 167.71875 L 195.988281 167.71875 L 195.988281 170.84375 C 195.988281 171.414062 195.523438 171.878906 194.949219 171.878906 L 191.828125 171.878906 L 191.828125 174.929688 L 194.949219 174.929688 C 195.523438 174.929688 195.988281 175.394531 195.988281 175.964844 Z M 219.957031 186.820312 L 219.957031 193.976562 L 227.125 193.976562 L 227.125 186.820312 Z M 219.957031 168.195312 L 219.957031 181.917969 L 227.125 181.917969 L 227.125 168.195312 Z M 209.203125 155.703125 L 202.921875 155.703125 L 202.921875 161.980469 L 209.203125 161.980469 Z M 202.921875 144.320312 L 202.921875 150.597656 L 209.203125 150.597656 L 209.203125 144.320312 Z M 192.90625 150.597656 L 192.90625 144.320312 L 186.628906 144.320312 L 186.628906 150.597656 Z M 192.90625 161.980469 L 192.90625 155.703125 L 186.628906 155.703125 L 186.628906 161.980469 Z M 175.066406 181.917969 L 175.066406 168.195312 L 167.910156 168.195312 L 167.910156 181.917969 Z M 175.066406 181.917969 " fill-opacity="1" fill-rule="evenodd"/><g clip-path="url(#1562c3f26e)"><path fill="#009f93" d="M 165.21875 158.699219 L 164.695312 158.511719 C 164.734375 158.140625 164.714844 157.746094 164.660156 157.375 L 165.164062 157.148438 C 165.480469 157 165.609375 156.625 165.460938 156.328125 L 165.164062 155.691406 C 165.011719 155.375 164.640625 155.242188 164.339844 155.394531 L 163.835938 155.617188 C 163.59375 155.320312 163.3125 155.058594 162.996094 154.832031 L 163.183594 154.308594 C 163.292969 153.992188 163.125 153.617188 162.808594 153.507812 L 162.15625 153.261719 C 161.835938 153.152344 161.464844 153.320312 161.351562 153.636719 L 161.164062 154.160156 C 160.789062 154.121094 160.398438 154.140625 160.023438 154.199219 L 159.78125 153.675781 C 159.632812 153.355469 159.257812 153.226562 158.960938 153.375 L 158.324219 153.675781 C 158.007812 153.824219 157.875 154.199219 158.023438 154.496094 L 158.25 155 C 157.949219 155.242188 157.6875 155.523438 157.464844 155.839844 L 156.941406 155.65625 C 156.625 155.542969 156.25 155.710938 156.136719 156.027344 L 155.894531 156.683594 C 155.839844 156.832031 155.839844 157 155.914062 157.167969 C 155.988281 157.316406 156.101562 157.429688 156.269531 157.484375 L 156.792969 157.671875 C 156.753906 158.046875 156.773438 158.4375 156.828125 158.8125 L 156.324219 159.035156 C 156.007812 159.1875 155.875 159.558594 156.027344 159.859375 L 156.324219 160.496094 C 156.472656 160.8125 156.847656 160.941406 157.148438 160.792969 L 157.652344 160.570312 C 157.894531 160.867188 158.175781 161.128906 158.492188 161.355469 L 158.304688 161.875 C 158.25 162.027344 158.25 162.195312 158.324219 162.363281 C 158.398438 162.511719 158.511719 162.625 158.679688 162.679688 L 159.332031 162.921875 C 159.484375 162.980469 159.652344 162.980469 159.820312 162.90625 C 159.96875 162.828125 160.082031 162.71875 160.136719 162.550781 L 160.324219 162.027344 C 160.695312 162.0625 161.089844 162.046875 161.464844 161.988281 L 161.6875 162.492188 C 161.835938 162.8125 162.210938 162.941406 162.507812 162.792969 L 163.144531 162.492188 C 163.460938 162.34375 163.59375 161.96875 163.445312 161.671875 L 163.21875 161.167969 C 163.519531 160.925781 163.78125 160.644531 164.003906 160.324219 L 164.527344 160.511719 C 164.675781 160.570312 164.863281 160.570312 165.011719 160.496094 C 165.164062 160.417969 165.273438 160.308594 165.332031 160.140625 L 165.574219 159.484375 C 165.703125 159.1875 165.535156 158.832031 165.21875 158.699219 Z M 161.78125 160.34375 C 161.445312 160.496094 161.109375 160.570312 160.753906 160.570312 C 159.78125 160.570312 158.902344 160.007812 158.511719 159.128906 C 157.933594 157.898438 158.492188 156.421875 159.726562 155.839844 C 160.0625 155.691406 160.398438 155.617188 160.753906 155.617188 C 161.726562 155.617188 162.601562 156.179688 162.996094 157.054688 C 163.554688 158.308594 163.015625 159.765625 161.78125 160.34375 Z M 161.78125 160.34375 " fill-opacity="1" fill-rule="nonzero"/></g><g clip-path="url(#8ec2da886c)"><path fill="#009f93" d="M 177.960938 149.488281 L 177.082031 149.171875 C 177.160156 148.535156 177.121094 147.882812 177.007812 147.246094 L 177.851562 146.855469 C 178.371094 146.609375 178.617188 145.996094 178.371094 145.453125 L 177.886719 144.386719 C 177.644531 143.863281 177.027344 143.621094 176.484375 143.863281 L 175.644531 144.257812 C 175.234375 143.753906 174.746094 143.304688 174.226562 142.949219 L 174.542969 142.070312 C 174.746094 141.527344 174.46875 140.914062 173.925781 140.726562 L 172.824219 140.316406 C 172.300781 140.128906 171.664062 140.40625 171.476562 140.929688 L 171.160156 141.808594 C 170.523438 141.734375 169.871094 141.773438 169.234375 141.882812 L 168.84375 141.042969 C 168.601562 140.519531 167.984375 140.277344 167.441406 140.519531 L 166.378906 141.003906 C 165.855469 141.25 165.609375 141.867188 165.855469 142.40625 L 166.246094 143.246094 C 165.742188 143.660156 165.292969 144.144531 164.9375 144.667969 L 164.058594 144.351562 C 163.539062 144.164062 162.902344 144.445312 162.714844 144.96875 L 162.304688 146.070312 C 162.210938 146.332031 162.210938 146.609375 162.339844 146.871094 C 162.453125 147.132812 162.675781 147.320312 162.9375 147.414062 L 163.816406 147.730469 C 163.742188 148.367188 163.761719 149.023438 163.890625 149.65625 L 163.050781 150.050781 C 162.527344 150.292969 162.285156 150.910156 162.527344 151.449219 L 163.015625 152.515625 C 163.257812 153.039062 163.875 153.28125 164.414062 153.039062 L 165.257812 152.648438 C 165.667969 153.152344 166.152344 153.597656 166.675781 153.953125 L 166.359375 154.832031 C 166.265625 155.09375 166.265625 155.375 166.394531 155.636719 C 166.507812 155.898438 166.730469 156.085938 166.992188 156.179688 L 168.097656 156.589844 C 168.359375 156.683594 168.636719 156.683594 168.898438 156.550781 C 169.160156 156.441406 169.347656 156.214844 169.441406 155.953125 L 169.757812 155.074219 C 170.394531 155.148438 171.046875 155.132812 171.683594 155 L 172.074219 155.839844 C 172.320312 156.363281 172.9375 156.609375 173.476562 156.363281 L 174.542969 155.878906 C 175.066406 155.636719 175.308594 155.019531 175.066406 154.476562 L 174.671875 153.636719 C 175.179688 153.226562 175.625 152.738281 175.980469 152.214844 L 176.859375 152.535156 C 177.121094 152.628906 177.402344 152.628906 177.664062 152.496094 C 177.925781 152.386719 178.109375 152.160156 178.203125 151.898438 L 178.617188 150.796875 C 178.785156 150.292969 178.503906 149.695312 177.960938 149.488281 Z M 172.1875 152.234375 C 171.644531 152.496094 171.046875 152.609375 170.449219 152.609375 C 168.824219 152.609375 167.347656 151.65625 166.675781 150.199219 C 165.703125 148.125 166.621094 145.640625 168.695312 144.6875 C 169.234375 144.425781 169.832031 144.3125 170.433594 144.3125 C 172.058594 144.3125 173.535156 145.265625 174.207031 146.722656 C 175.179688 148.796875 174.261719 151.28125 172.1875 152.234375 Z M 172.1875 152.234375 " fill-opacity="1" fill-rule="nonzero"/></g><g clip-path="url(#0ed7b36bee)"><g transform="matrix(1, 0, 0, 1, 217, 140)"><g clip-path="url(#6cfe1df489)"><g clip-path="url(#9ef44e94ba)"><path fill="#009f93" d="M 14.15625 18.699219 L 14.679688 18.511719 C 14.640625 18.140625 14.660156 17.746094 14.714844 17.375 L 14.210938 17.148438 C 13.894531 17 13.761719 16.625 13.914062 16.328125 L 14.210938 15.691406 C 14.359375 15.375 14.734375 15.242188 15.035156 15.394531 L 15.539062 15.617188 C 15.78125 15.320312 16.0625 15.058594 16.378906 14.832031 L 16.191406 14.308594 C 16.082031 13.992188 16.25 13.617188 16.566406 13.507812 L 17.21875 13.261719 C 17.539062 13.152344 17.910156 13.320312 18.023438 13.636719 L 18.210938 14.160156 C 18.582031 14.121094 18.976562 14.140625 19.351562 14.199219 L 19.59375 13.675781 C 19.742188 13.355469 20.117188 13.226562 20.414062 13.375 L 21.050781 13.675781 C 21.367188 13.824219 21.5 14.199219 21.347656 14.496094 L 21.125 15 C 21.425781 15.242188 21.6875 15.523438 21.910156 15.839844 L 22.433594 15.65625 C 22.75 15.542969 23.125 15.710938 23.238281 16.027344 L 23.480469 16.683594 C 23.535156 16.832031 23.535156 17 23.460938 17.167969 C 23.386719 17.316406 23.273438 17.429688 23.105469 17.484375 L 22.582031 17.671875 C 22.621094 18.046875 22.601562 18.4375 22.546875 18.8125 L 23.050781 19.035156 C 23.367188 19.1875 23.5 19.558594 23.347656 19.859375 L 23.050781 20.496094 C 22.898438 20.8125 22.527344 20.941406 22.226562 20.792969 L 21.722656 20.570312 C 21.480469 20.867188 21.199219 21.128906 20.882812 21.355469 L 21.070312 21.875 C 21.125 22.027344 21.125 22.195312 21.050781 22.363281 C 20.976562 22.511719 20.863281 22.625 20.695312 22.679688 L 20.042969 22.921875 C 19.890625 22.980469 19.722656 22.980469 19.554688 22.90625 C 19.40625 22.828125 19.292969 22.71875 19.238281 22.550781 L 19.050781 22.027344 C 18.675781 22.0625 18.285156 22.046875 17.910156 21.988281 L 17.6875 22.492188 C 17.539062 22.8125 17.164062 22.941406 16.863281 22.792969 L 16.230469 22.492188 C 15.910156 22.34375 15.78125 21.96875 15.929688 21.671875 L 16.15625 21.167969 C 15.855469 20.925781 15.59375 20.644531 15.371094 20.324219 L 14.847656 20.511719 C 14.699219 20.570312 14.511719 20.570312 14.359375 20.496094 C 14.210938 20.417969 14.101562 20.308594 14.042969 20.140625 L 13.800781 19.484375 C 13.667969 19.1875 13.839844 18.832031 14.15625 18.699219 Z M 17.59375 20.34375 C 17.929688 20.496094 18.265625 20.570312 18.621094 20.570312 C 19.59375 20.570312 20.472656 20.007812 20.863281 19.128906 C 21.441406 17.898438 20.882812 16.421875 19.648438 15.839844 C 19.3125 15.691406 18.976562 15.617188 18.621094 15.617188 C 17.648438 15.617188 16.773438 16.179688 16.378906 17.054688 C 15.820312 18.308594 16.359375 19.765625 17.59375 20.34375 Z M 17.59375 20.34375 " fill-opacity="1" fill-rule="nonzero"/></g><g clip-path="url(#8dd26a3d43)"><path fill="#009f93" d="M 1.414062 9.488281 L 2.289062 9.171875 C 2.214844 8.535156 2.253906 7.882812 2.367188 7.246094 L 1.523438 6.855469 C 1 6.609375 0.757812 5.996094 1 5.453125 L 1.488281 4.386719 C 1.730469 3.863281 2.347656 3.621094 2.890625 3.863281 L 3.730469 4.257812 C 4.140625 3.753906 4.625 3.304688 5.148438 2.949219 L 4.832031 2.070312 C 4.625 1.527344 4.90625 0.914062 5.449219 0.726562 L 6.550781 0.316406 C 7.074219 0.128906 7.710938 0.40625 7.894531 0.929688 L 8.214844 1.808594 C 8.847656 1.734375 9.503906 1.773438 10.136719 1.882812 L 10.53125 1.042969 C 10.773438 0.519531 11.390625 0.277344 11.933594 0.519531 L 12.996094 1.003906 C 13.519531 1.25 13.761719 1.867188 13.519531 2.40625 L 13.128906 3.246094 C 13.632812 3.660156 14.082031 4.144531 14.4375 4.667969 L 15.3125 4.351562 C 15.835938 4.164062 16.472656 4.445312 16.660156 4.96875 L 17.070312 6.070312 C 17.164062 6.332031 17.164062 6.609375 17.03125 6.871094 C 16.921875 7.132812 16.695312 7.320312 16.433594 7.414062 L 15.558594 7.730469 C 15.632812 8.367188 15.613281 9.023438 15.480469 9.65625 L 16.324219 10.050781 C 16.847656 10.292969 17.089844 10.910156 16.847656 11.449219 L 16.359375 12.515625 C 16.117188 13.039062 15.5 13.28125 14.960938 13.039062 L 14.117188 12.648438 C 13.707031 13.152344 13.222656 13.597656 12.699219 13.953125 L 13.015625 14.832031 C 13.109375 15.09375 13.109375 15.375 12.980469 15.636719 C 12.867188 15.898438 12.640625 16.085938 12.378906 16.179688 L 11.277344 16.589844 C 11.015625 16.683594 10.738281 16.683594 10.476562 16.550781 C 10.214844 16.441406 10.027344 16.214844 9.933594 15.953125 L 9.617188 15.074219 C 8.980469 15.148438 8.324219 15.132812 7.691406 15 L 7.296875 15.839844 C 7.054688 16.363281 6.4375 16.609375 5.898438 16.363281 L 4.832031 15.878906 C 4.308594 15.636719 4.066406 15.019531 4.308594 14.476562 L 4.699219 13.636719 C 4.195312 13.226562 3.75 12.738281 3.394531 12.214844 L 2.515625 12.535156 C 2.253906 12.628906 1.972656 12.628906 1.710938 12.496094 C 1.449219 12.386719 1.261719 12.160156 1.167969 11.898438 L 0.757812 10.796875 C 0.589844 10.292969 0.871094 9.695312 1.414062 9.488281 Z M 7.1875 12.234375 C 7.726562 12.496094 8.324219 12.609375 8.925781 12.609375 C 10.550781 12.609375 12.027344 11.65625 12.699219 10.199219 C 13.667969 8.125 12.753906 5.640625 10.679688 4.6875 C 10.136719 4.425781 9.539062 4.3125 8.941406 4.3125 C 7.316406 4.3125 5.839844 5.265625 5.167969 6.722656 C 4.195312 8.796875 5.113281 11.28125 7.1875 12.234375 Z M 7.1875 12.234375 " fill-opacity="1" fill-rule="nonzero"/></g></g></g></g><g mask="url(#36104a2cbd)"><g transform="matrix(1, 0, 0, 1, 123, 247)"><g clip-path="url(#80c810ae63)"><g clip-path="url(#a788b0ab45)"><g clip-path="url(#3bb6589187)"><g clip-path="url(#2de05da309)"><path fill="#009f93" d="M 11.65625 18.039062 C 11.644531 18.042969 11.632812 18.046875 11.617188 18.046875 C 8.285156 18.273438 6.191406 17.03125 5.019531 15.949219 C 3.746094 14.777344 3.273438 13.5625 3.253906 13.511719 C 3.25 13.511719 3.25 13.507812 3.25 13.503906 L 1.101562 6.789062 C 1.085938 6.742188 1.09375 6.691406 1.117188 6.652344 C 1.140625 6.609375 1.183594 6.582031 1.230469 6.570312 C 1.582031 6.507812 1.933594 6.421875 2.28125 6.308594 C 5.054688 5.421875 6.816406 3.277344 6.832031 3.257812 C 6.875 3.203125 6.945312 3.183594 7.007812 3.199219 C 7.035156 3.207031 9.714844 3.933594 12.488281 3.046875 C 12.835938 2.933594 13.171875 2.800781 13.496094 2.648438 C 13.539062 2.628906 13.589844 2.628906 13.632812 2.648438 C 13.679688 2.667969 13.710938 2.703125 13.726562 2.75 L 15.875 9.464844 C 15.875 9.46875 15.875 9.472656 15.878906 9.476562 C 15.890625 9.527344 16.207031 10.792969 15.851562 12.484375 C 15.527344 14.046875 14.539062 16.273438 11.695312 18.023438 C 11.683594 18.027344 11.671875 18.035156 11.65625 18.039062 Z M 3.566406 13.398438 C 3.597656 13.472656 4.074219 14.625 5.257812 15.714844 C 6.375 16.742188 8.375 17.917969 11.554688 17.714844 C 14.261719 16.035156 15.207031 13.917969 15.519531 12.433594 C 15.855469 10.859375 15.570312 9.644531 15.550781 9.5625 L 13.464844 3.035156 C 13.183594 3.160156 12.890625 3.269531 12.589844 3.367188 C 10 4.195312 7.5625 3.683594 7.023438 3.550781 C 6.664062 3.96875 4.972656 5.800781 2.382812 6.628906 C 2.085938 6.726562 1.78125 6.804688 1.480469 6.867188 Z M 3.566406 13.398438 " fill-opacity="1" fill-rule="nonzero"/></g></g></g><g clip-path="url(#63366c9c15)"><g clip-path="url(#89e9f3d69f)"><g clip-path="url(#fbfbf53f8f)"><g clip-path="url(#dfc50fe71f)"><path fill="url(#cd9083361c)" d="M 2.773438 6.984375 L 5.878906 16.6875 L 15.582031 13.585938 L 12.476562 3.882812 Z M 2.773438 6.984375 " fill-rule="nonzero"/></g></g></g></g></g></g></g><g transform="matrix(1, 0, 0, 1, 138, 239)"><g clip-path="url(#938ebf16fb)"><g fill="#009f93" fill-opacity="1"><g transform="translate(1.133651, 33.38724)"><g><path d="M 15.546875 -3.296875 L 8.265625 -3.296875 L 7.1875 0 L 0 0 L 8 -21.84375 L 15.890625 -21.84375 L 23.859375 0 L 16.640625 0 Z M 13.890625 -8.453125 L 11.90625 -14.53125 L 9.9375 -8.453125 Z M 13.890625 -8.453125 "/></g></g></g><g fill="#009f93" fill-opacity="1"><g transform="translate(24.979154, 33.38724)"><g><path d="M 8.390625 -5.1875 L 15 -5.1875 L 15 0 L 1.546875 0 L 1.546875 -21.84375 L 8.390625 -21.84375 Z M 8.390625 -5.1875 "/></g></g></g><g fill="#009f93" fill-opacity="1"><g transform="translate(40.588249, 33.38724)"><g><path d="M 8.390625 -16.390625 L 8.390625 -13.703125 L 15.1875 -13.703125 L 15.1875 -8.546875 L 8.390625 -8.546875 L 8.390625 -5.46875 L 16.109375 -5.46875 L 16.109375 0 L 1.546875 0 L 1.546875 -21.84375 L 16.109375 -21.84375 L 16.109375 -16.390625 Z M 8.390625 -16.390625 "/></g></g></g><g fill="#009f93" fill-opacity="1"><g transform="translate(57.739728, 33.38724)"><g><path d="M 12.53125 0 L 8.421875 -7.84375 L 8.390625 -7.84375 L 8.390625 0 L 1.546875 0 L 1.546875 -21.84375 L 11.734375 -21.84375 C 13.492188 -21.84375 15 -21.53125 16.25 -20.90625 C 17.507812 -20.28125 18.453125 -19.425781 19.078125 -18.34375 C 19.710938 -17.257812 20.03125 -16.039062 20.03125 -14.6875 C 20.03125 -13.226562 19.625 -11.929688 18.8125 -10.796875 C 18 -9.671875 16.832031 -8.859375 15.3125 -8.359375 L 20.0625 0 Z M 8.390625 -12.40625 L 11.109375 -12.40625 C 11.765625 -12.40625 12.253906 -12.550781 12.578125 -12.84375 C 12.910156 -13.144531 13.078125 -13.613281 13.078125 -14.25 C 13.078125 -14.832031 12.90625 -15.285156 12.5625 -15.609375 C 12.226562 -15.941406 11.742188 -16.109375 11.109375 -16.109375 L 8.390625 -16.109375 Z M 8.390625 -12.40625 "/></g></g></g><g fill="#009f93" fill-opacity="1"><g transform="translate(78.407881, 33.38724)"><g><path d="M 8.390625 -21.84375 L 8.390625 0 L 1.546875 0 L 1.546875 -21.84375 Z M 8.390625 -21.84375 "/></g></g></g><g fill="#009f93" fill-opacity="1"><g transform="translate(88.340933, 33.38724)"><g><path d="M 12.1875 0.21875 C 10.132812 0.21875 8.25 -0.265625 6.53125 -1.234375 C 4.8125 -2.203125 3.445312 -3.539062 2.4375 -5.25 C 1.425781 -6.957031 0.921875 -8.878906 0.921875 -11.015625 C 0.921875 -13.148438 1.425781 -15.070312 2.4375 -16.78125 C 3.445312 -18.488281 4.8125 -19.820312 6.53125 -20.78125 C 8.25 -21.738281 10.132812 -22.21875 12.1875 -22.21875 C 14.25 -22.21875 16.128906 -21.738281 17.828125 -20.78125 C 19.535156 -19.820312 20.890625 -18.488281 21.890625 -16.78125 C 22.890625 -15.070312 23.390625 -13.148438 23.390625 -11.015625 C 23.390625 -8.878906 22.890625 -6.957031 21.890625 -5.25 C 20.890625 -3.539062 19.53125 -2.203125 17.8125 -1.234375 C 16.101562 -0.265625 14.226562 0.21875 12.1875 0.21875 Z M 12.1875 -6.171875 C 13.539062 -6.171875 14.585938 -6.609375 15.328125 -7.484375 C 16.078125 -8.359375 16.453125 -9.535156 16.453125 -11.015625 C 16.453125 -12.515625 16.078125 -13.703125 15.328125 -14.578125 C 14.585938 -15.453125 13.539062 -15.890625 12.1875 -15.890625 C 10.8125 -15.890625 9.753906 -15.453125 9.015625 -14.578125 C 8.273438 -13.703125 7.90625 -12.515625 7.90625 -11.015625 C 7.90625 -9.535156 8.273438 -8.359375 9.015625 -7.484375 C 9.753906 -6.609375 10.8125 -6.171875 12.1875 -6.171875 Z M 12.1875 -6.171875 "/></g></g></g><g fill="#009f93" fill-opacity="1"><g transform="translate(112.652231, 33.38724)"><g/></g></g></g></g><g fill="#009f93" fill-opacity="1"><g transform="translate(111.438286, 273.666925)"><g><path d="M 1.5 -30.09375 L 5.890625 -30.09375 C 5.609375 -29.726562 5.476562 -29.304688 5.5 -28.828125 C 5.53125 -28.359375 5.644531 -27.878906 5.84375 -27.390625 C 6.675781 -25.523438 7.515625 -23.742188 8.359375 -22.046875 C 9.203125 -20.359375 10.097656 -18.585938 11.046875 -16.734375 C 11.046875 -18.390625 11.300781 -20.039062 11.8125 -21.6875 C 12.332031 -23.34375 13.085938 -24.847656 14.078125 -26.203125 C 15.066406 -27.566406 16.269531 -28.664062 17.6875 -29.5 C 19.113281 -30.332031 20.742188 -30.75 22.578125 -30.75 C 24.378906 -30.75 26.023438 -30.375 27.515625 -29.625 C 29.003906 -28.882812 30.191406 -27.757812 31.078125 -26.25 C 31.972656 -24.75 32.421875 -22.820312 32.421875 -20.46875 C 32.421875 -18.894531 32.078125 -17.3125 31.390625 -15.71875 C 30.703125 -14.125 29.789062 -12.5625 28.65625 -11.03125 C 27.53125 -9.5 26.289062 -8.03125 24.9375 -6.625 C 23.59375 -5.21875 22.265625 -3.894531 20.953125 -2.65625 C 19.648438 -1.425781 18.5 -0.328125 17.5 0.640625 L 10.75 -12.859375 C 9.832031 -14.722656 9 -16.390625 8.25 -17.859375 C 7.507812 -19.335938 6.78125 -20.816406 6.0625 -22.296875 C 5.34375 -23.773438 4.507812 -25.429688 3.5625 -27.265625 C 3.363281 -27.691406 3.09375 -28.175781 2.75 -28.71875 C 2.40625 -29.269531 1.988281 -29.726562 1.5 -30.09375 Z M 22.28125 -29.15625 C 20.78125 -29.15625 19.40625 -28.789062 18.15625 -28.0625 C 16.914062 -27.332031 15.820312 -26.390625 14.875 -25.234375 C 13.925781 -24.085938 13.171875 -22.875 12.609375 -21.59375 C 12.054688 -20.320312 11.703125 -19.113281 11.546875 -17.96875 C 11.390625 -16.820312 11.484375 -15.890625 11.828125 -15.171875 C 12.972656 -12.796875 14.132812 -10.4375 15.3125 -8.09375 C 16.488281 -5.757812 17.632812 -3.460938 18.75 -1.203125 C 20.0625 -2.429688 21.425781 -3.75 22.84375 -5.15625 C 24.269531 -6.5625 25.601562 -8.023438 26.84375 -9.546875 C 28.09375 -11.066406 29.101562 -12.632812 29.875 -14.25 C 30.65625 -15.875 31.046875 -17.503906 31.046875 -19.140625 C 31.046875 -21.023438 30.664062 -22.71875 29.90625 -24.21875 C 29.144531 -25.726562 28.101562 -26.925781 26.78125 -27.8125 C 25.46875 -28.707031 23.96875 -29.15625 22.28125 -29.15625 Z M 22.28125 -29.15625 "/></g></g></g><g transform="matrix(1, 0, 0, 1, 123, 277)"><g clip-path="url(#8354758750)"><g fill="#000000" fill-opacity="1"><g transform="translate(1.030985, 6.609996)"><g/></g></g><g fill="#000000" fill-opacity="1"><g transform="translate(4.840712, 6.609996)"><g><path d="M 3.140625 -3.875 L 1.875 -1.46875 L 1.875 0 L 1.375 0 L 1.375 -1.46875 L 0.109375 -3.875 L 0.671875 -3.875 L 1.625 -1.90625 L 2.578125 -3.875 Z M 3.140625 -3.875 "/></g></g></g><g fill="#000000" fill-opacity="1"><g transform="translate(10.408791, 6.609996)"><g><path d="M 2.1875 0.03125 C 1.820312 0.03125 1.488281 -0.0507812 1.1875 -0.21875 C 0.894531 -0.382812 0.660156 -0.617188 0.484375 -0.921875 C 0.316406 -1.222656 0.234375 -1.5625 0.234375 -1.9375 C 0.234375 -2.320312 0.316406 -2.664062 0.484375 -2.96875 C 0.660156 -3.269531 0.894531 -3.503906 1.1875 -3.671875 C 1.488281 -3.835938 1.820312 -3.921875 2.1875 -3.921875 C 2.550781 -3.921875 2.878906 -3.835938 3.171875 -3.671875 C 3.472656 -3.503906 3.707031 -3.269531 3.875 -2.96875 C 4.050781 -2.664062 4.140625 -2.320312 4.140625 -1.9375 C 4.140625 -1.5625 4.050781 -1.222656 3.875 -0.921875 C 3.707031 -0.617188 3.472656 -0.382812 3.171875 -0.21875 C 2.878906 -0.0507812 2.550781 0.03125 2.1875 0.03125 Z M 2.1875 -0.40625 C 2.457031 -0.40625 2.703125 -0.46875 2.921875 -0.59375 C 3.140625 -0.71875 3.304688 -0.894531 3.421875 -1.125 C 3.546875 -1.363281 3.609375 -1.632812 3.609375 -1.9375 C 3.609375 -2.25 3.546875 -2.519531 3.421875 -2.75 C 3.304688 -2.988281 3.140625 -3.171875 2.921875 -3.296875 C 2.703125 -3.421875 2.457031 -3.484375 2.1875 -3.484375 C 1.914062 -3.484375 1.671875 -3.421875 1.453125 -3.296875 C 1.234375 -3.171875 1.0625 -2.988281 0.9375 -2.75 C 0.8125 -2.519531 0.75 -2.25 0.75 -1.9375 C 0.75 -1.632812 0.8125 -1.363281 0.9375 -1.125 C 1.0625 -0.894531 1.234375 -0.71875 1.453125 -0.59375 C 1.671875 -0.46875 1.914062 -0.40625 2.1875 -0.40625 Z M 2.1875 -0.40625 "/></g></g></g><g fill="#000000" fill-opacity="1"><g transform="translate(17.100498, 6.609996)"><g><path d="M 0.921875 -3.875 L 0.921875 -1.421875 C 0.921875 -1.078125 1.003906 -0.820312 1.171875 -0.65625 C 1.335938 -0.488281 1.570312 -0.40625 1.875 -0.40625 C 2.175781 -0.40625 2.410156 -0.488281 2.578125 -0.65625 C 2.742188 -0.820312 2.828125 -1.078125 2.828125 -1.421875 L 2.828125 -3.875 L 3.34375 -3.875 L 3.34375 -1.421875 C 3.34375 -1.109375 3.273438 -0.835938 3.140625 -0.609375 C 3.015625 -0.390625 2.835938 -0.226562 2.609375 -0.125 C 2.390625 -0.0195312 2.144531 0.03125 1.875 0.03125 C 1.601562 0.03125 1.351562 -0.0195312 1.125 -0.125 C 0.90625 -0.226562 0.734375 -0.390625 0.609375 -0.609375 C 0.484375 -0.835938 0.421875 -1.109375 0.421875 -1.421875 L 0.421875 -3.875 Z M 0.921875 -3.875 "/></g></g></g><g fill="#000000" fill-opacity="1"><g transform="translate(23.174762, 6.609996)"><g><path d="M 2.46875 0 L 1.546875 -1.578125 L 0.9375 -1.578125 L 0.9375 0 L 0.421875 0 L 0.421875 -3.875 L 1.6875 -3.875 C 1.976562 -3.875 2.222656 -3.820312 2.421875 -3.71875 C 2.617188 -3.625 2.769531 -3.488281 2.875 -3.3125 C 2.976562 -3.144531 3.03125 -2.953125 3.03125 -2.734375 C 3.03125 -2.472656 2.953125 -2.238281 2.796875 -2.03125 C 2.640625 -1.820312 2.410156 -1.6875 2.109375 -1.625 L 3.078125 0 Z M 0.9375 -1.984375 L 1.6875 -1.984375 C 1.957031 -1.984375 2.160156 -2.050781 2.296875 -2.1875 C 2.429688 -2.320312 2.5 -2.503906 2.5 -2.734375 C 2.5 -2.960938 2.429688 -3.140625 2.296875 -3.265625 C 2.160156 -3.390625 1.957031 -3.453125 1.6875 -3.453125 L 0.9375 -3.453125 Z M 0.9375 -1.984375 "/></g></g></g><g fill="#000000" fill-opacity="1"><g transform="translate(28.876338, 6.609996)"><g><path d="M 3.421875 -3.875 L 3.421875 0 L 2.90625 0 L 2.90625 -1.75 L 0.9375 -1.75 L 0.9375 0 L 0.421875 0 L 0.421875 -3.875 L 0.9375 -3.875 L 0.9375 -2.171875 L 2.90625 -2.171875 L 2.90625 -3.875 Z M 3.421875 -3.875 "/></g></g></g><g fill="#000000" fill-opacity="1"><g transform="translate(35.045168, 6.609996)"><g><path d="M 0.9375 -3.46875 L 0.9375 -2.171875 L 2.34375 -2.171875 L 2.34375 -1.75 L 0.9375 -1.75 L 0.9375 -0.421875 L 2.515625 -0.421875 L 2.515625 0 L 0.421875 0 L 0.421875 -3.875 L 2.515625 -3.875 L 2.515625 -3.46875 Z M 0.9375 -3.46875 "/></g></g></g><g fill="#000000" fill-opacity="1"><g transform="translate(40.218301, 6.609996)"><g><path d="M 2.71875 -0.859375 L 1.03125 -0.859375 L 0.71875 0 L 0.1875 0 L 1.578125 -3.859375 L 2.171875 -3.859375 L 3.5625 0 L 3.03125 0 Z M 2.578125 -1.28125 L 1.875 -3.234375 L 1.171875 -1.28125 Z M 2.578125 -1.28125 "/></g></g></g><g fill="#000000" fill-opacity="1"><g transform="translate(46.287005, 6.609996)"><g><path d="M 0.9375 -0.40625 L 2.296875 -0.40625 L 2.296875 0 L 0.421875 0 L 0.421875 -3.875 L 0.9375 -3.875 Z M 0.9375 -0.40625 "/></g></g></g><g fill="#000000" fill-opacity="1"><g transform="translate(51.009576, 6.609996)"><g><path d="M 2.8125 -3.875 L 2.8125 -3.46875 L 1.75 -3.46875 L 1.75 0 L 1.25 0 L 1.25 -3.46875 L 0.1875 -3.46875 L 0.1875 -3.875 Z M 2.8125 -3.875 "/></g></g></g><g fill="#000000" fill-opacity="1"><g transform="translate(56.338465, 6.609996)"><g><path d="M 3.421875 -3.875 L 3.421875 0 L 2.90625 0 L 2.90625 -1.75 L 0.9375 -1.75 L 0.9375 0 L 0.421875 0 L 0.421875 -3.875 L 0.9375 -3.875 L 0.9375 -2.171875 L 2.90625 -2.171875 L 2.90625 -3.875 Z M 3.421875 -3.875 "/></g></g></g><g fill="#000000" fill-opacity="1"><g transform="translate(62.507295, 6.609996)"><g><path d="M 2.1875 0.03125 C 1.820312 0.03125 1.488281 -0.0507812 1.1875 -0.21875 C 0.894531 -0.382812 0.660156 -0.617188 0.484375 -0.921875 C 0.316406 -1.222656 0.234375 -1.5625 0.234375 -1.9375 C 0.234375 -2.320312 0.316406 -2.664062 0.484375 -2.96875 C 0.660156 -3.269531 0.894531 -3.503906 1.1875 -3.671875 C 1.488281 -3.835938 1.820312 -3.921875 2.1875 -3.921875 C 2.550781 -3.921875 2.878906 -3.835938 3.171875 -3.671875 C 3.472656 -3.503906 3.707031 -3.269531 3.875 -2.96875 C 4.050781 -2.664062 4.140625 -2.320312 4.140625 -1.9375 C 4.140625 -1.5625 4.050781 -1.222656 3.875 -0.921875 C 3.707031 -0.617188 3.472656 -0.382812 3.171875 -0.21875 C 2.878906 -0.0507812 2.550781 0.03125 2.1875 0.03125 Z M 2.1875 -0.40625 C 2.457031 -0.40625 2.703125 -0.46875 2.921875 -0.59375 C 3.140625 -0.71875 3.304688 -0.894531 3.421875 -1.125 C 3.546875 -1.363281 3.609375 -1.632812 3.609375 -1.9375 C 3.609375 -2.25 3.546875 -2.519531 3.421875 -2.75 C 3.304688 -2.988281 3.140625 -3.171875 2.921875 -3.296875 C 2.703125 -3.421875 2.457031 -3.484375 2.1875 -3.484375 C 1.914062 -3.484375 1.671875 -3.421875 1.453125 -3.296875 C 1.234375 -3.171875 1.0625 -2.988281 0.9375 -2.75 C 0.8125 -2.519531 0.75 -2.25 0.75 -1.9375 C 0.75 -1.632812 0.8125 -1.363281 0.9375 -1.125 C 1.0625 -0.894531 1.234375 -0.71875 1.453125 -0.59375 C 1.671875 -0.46875 1.914062 -0.40625 2.1875 -0.40625 Z M 2.1875 -0.40625 "/></g></g></g><g fill="#000000" fill-opacity="1"><g transform="translate(69.199003, 6.609996)"><g><path d="M 0.921875 -3.875 L 0.921875 -1.421875 C 0.921875 -1.078125 1.003906 -0.820312 1.171875 -0.65625 C 1.335938 -0.488281 1.570312 -0.40625 1.875 -0.40625 C 2.175781 -0.40625 2.410156 -0.488281 2.578125 -0.65625 C 2.742188 -0.820312 2.828125 -1.078125 2.828125 -1.421875 L 2.828125 -3.875 L 3.34375 -3.875 L 3.34375 -1.421875 C 3.34375 -1.109375 3.273438 -0.835938 3.140625 -0.609375 C 3.015625 -0.390625 2.835938 -0.226562 2.609375 -0.125 C 2.390625 -0.0195312 2.144531 0.03125 1.875 0.03125 C 1.601562 0.03125 1.351562 -0.0195312 1.125 -0.125 C 0.90625 -0.226562 0.734375 -0.390625 0.609375 -0.609375 C 0.484375 -0.835938 0.421875 -1.109375 0.421875 -1.421875 L 0.421875 -3.875 Z M 0.921875 -3.875 "/></g></g></g><g fill="#000000" fill-opacity="1"><g transform="translate(75.273266, 6.609996)"><g><path d="M 2.46875 0 L 1.546875 -1.578125 L 0.9375 -1.578125 L 0.9375 0 L 0.421875 0 L 0.421875 -3.875 L 1.6875 -3.875 C 1.976562 -3.875 2.222656 -3.820312 2.421875 -3.71875 C 2.617188 -3.625 2.769531 -3.488281 2.875 -3.3125 C 2.976562 -3.144531 3.03125 -2.953125 3.03125 -2.734375 C 3.03125 -2.472656 2.953125 -2.238281 2.796875 -2.03125 C 2.640625 -1.820312 2.410156 -1.6875 2.109375 -1.625 L 3.078125 0 Z M 0.9375 -1.984375 L 1.6875 -1.984375 C 1.957031 -1.984375 2.160156 -2.050781 2.296875 -2.1875 C 2.429688 -2.320312 2.5 -2.503906 2.5 -2.734375 C 2.5 -2.960938 2.429688 -3.140625 2.296875 -3.265625 C 2.160156 -3.390625 1.957031 -3.453125 1.6875 -3.453125 L 0.9375 -3.453125 Z M 0.9375 -1.984375 "/></g></g></g><g fill="#000000" fill-opacity="1"><g transform="translate(80.974843, 6.609996)"><g><path d="M 3.015625 -2.75 C 3.015625 -2.425781 2.90625 -2.15625 2.6875 -1.9375 C 2.46875 -1.726562 2.132812 -1.625 1.6875 -1.625 L 0.9375 -1.625 L 0.9375 0 L 0.421875 0 L 0.421875 -3.875 L 1.6875 -3.875 C 2.125 -3.875 2.453125 -3.769531 2.671875 -3.5625 C 2.898438 -3.351562 3.015625 -3.082031 3.015625 -2.75 Z M 1.6875 -2.03125 C 1.96875 -2.03125 2.171875 -2.09375 2.296875 -2.21875 C 2.429688 -2.34375 2.5 -2.519531 2.5 -2.75 C 2.5 -3.21875 2.226562 -3.453125 1.6875 -3.453125 L 0.9375 -3.453125 L 0.9375 -2.03125 Z M 1.6875 -2.03125 "/></g></g></g><g fill="#000000" fill-opacity="1"><g transform="translate(86.515103, 6.609996)"><g><path d="M 2.71875 -0.859375 L 1.03125 -0.859375 L 0.71875 0 L 0.1875 0 L 1.578125 -3.859375 L 2.171875 -3.859375 L 3.5625 0 L 3.03125 0 Z M 2.578125 -1.28125 L 1.875 -3.234375 L 1.171875 -1.28125 Z M 2.578125 -1.28125 "/></g></g></g><g fill="#000000" fill-opacity="1"><g transform="translate(92.583807, 6.609996)"><g><path d="M 1.65625 0.03125 C 1.40625 0.03125 1.175781 -0.0078125 0.96875 -0.09375 C 0.769531 -0.1875 0.613281 -0.3125 0.5 -0.46875 C 0.382812 -0.632812 0.320312 -0.820312 0.3125 -1.03125 L 0.859375 -1.03125 C 0.878906 -0.851562 0.953125 -0.703125 1.078125 -0.578125 C 1.210938 -0.453125 1.40625 -0.390625 1.65625 -0.390625 C 1.894531 -0.390625 2.082031 -0.445312 2.21875 -0.5625 C 2.363281 -0.6875 2.4375 -0.84375 2.4375 -1.03125 C 2.4375 -1.175781 2.394531 -1.296875 2.3125 -1.390625 C 2.226562 -1.484375 2.125 -1.554688 2 -1.609375 C 1.882812 -1.660156 1.722656 -1.710938 1.515625 -1.765625 C 1.253906 -1.828125 1.046875 -1.890625 0.890625 -1.953125 C 0.742188 -2.023438 0.613281 -2.128906 0.5 -2.265625 C 0.394531 -2.410156 0.34375 -2.609375 0.34375 -2.859375 C 0.34375 -3.066406 0.394531 -3.25 0.5 -3.40625 C 0.601562 -3.570312 0.753906 -3.695312 0.953125 -3.78125 C 1.148438 -3.875 1.375 -3.921875 1.625 -3.921875 C 1.988281 -3.921875 2.285156 -3.828125 2.515625 -3.640625 C 2.742188 -3.460938 2.875 -3.226562 2.90625 -2.9375 L 2.359375 -2.9375 C 2.335938 -3.082031 2.253906 -3.210938 2.109375 -3.328125 C 1.972656 -3.441406 1.796875 -3.5 1.578125 -3.5 C 1.359375 -3.5 1.179688 -3.441406 1.046875 -3.328125 C 0.921875 -3.222656 0.859375 -3.070312 0.859375 -2.875 C 0.859375 -2.726562 0.894531 -2.609375 0.96875 -2.515625 C 1.050781 -2.429688 1.148438 -2.363281 1.265625 -2.3125 C 1.390625 -2.269531 1.554688 -2.21875 1.765625 -2.15625 C 2.015625 -2.09375 2.21875 -2.023438 2.375 -1.953125 C 2.53125 -1.890625 2.664062 -1.785156 2.78125 -1.640625 C 2.894531 -1.492188 2.953125 -1.300781 2.953125 -1.0625 C 2.953125 -0.863281 2.898438 -0.679688 2.796875 -0.515625 C 2.691406 -0.347656 2.539062 -0.210938 2.34375 -0.109375 C 2.15625 -0.015625 1.925781 0.03125 1.65625 0.03125 Z M 1.65625 0.03125 "/></g></g></g><g fill="#000000" fill-opacity="1"><g transform="translate(98.168571, 6.609996)"><g><path d="M 1.65625 0.03125 C 1.40625 0.03125 1.175781 -0.0078125 0.96875 -0.09375 C 0.769531 -0.1875 0.613281 -0.3125 0.5 -0.46875 C 0.382812 -0.632812 0.320312 -0.820312 0.3125 -1.03125 L 0.859375 -1.03125 C 0.878906 -0.851562 0.953125 -0.703125 1.078125 -0.578125 C 1.210938 -0.453125 1.40625 -0.390625 1.65625 -0.390625 C 1.894531 -0.390625 2.082031 -0.445312 2.21875 -0.5625 C 2.363281 -0.6875 2.4375 -0.84375 2.4375 -1.03125 C 2.4375 -1.175781 2.394531 -1.296875 2.3125 -1.390625 C 2.226562 -1.484375 2.125 -1.554688 2 -1.609375 C 1.882812 -1.660156 1.722656 -1.710938 1.515625 -1.765625 C 1.253906 -1.828125 1.046875 -1.890625 0.890625 -1.953125 C 0.742188 -2.023438 0.613281 -2.128906 0.5 -2.265625 C 0.394531 -2.410156 0.34375 -2.609375 0.34375 -2.859375 C 0.34375 -3.066406 0.394531 -3.25 0.5 -3.40625 C 0.601562 -3.570312 0.753906 -3.695312 0.953125 -3.78125 C 1.148438 -3.875 1.375 -3.921875 1.625 -3.921875 C 1.988281 -3.921875 2.285156 -3.828125 2.515625 -3.640625 C 2.742188 -3.460938 2.875 -3.226562 2.90625 -2.9375 L 2.359375 -2.9375 C 2.335938 -3.082031 2.253906 -3.210938 2.109375 -3.328125 C 1.972656 -3.441406 1.796875 -3.5 1.578125 -3.5 C 1.359375 -3.5 1.179688 -3.441406 1.046875 -3.328125 C 0.921875 -3.222656 0.859375 -3.070312 0.859375 -2.875 C 0.859375 -2.726562 0.894531 -2.609375 0.96875 -2.515625 C 1.050781 -2.429688 1.148438 -2.363281 1.265625 -2.3125 C 1.390625 -2.269531 1.554688 -2.21875 1.765625 -2.15625 C 2.015625 -2.09375 2.21875 -2.023438 2.375 -1.953125 C 2.53125 -1.890625 2.664062 -1.785156 2.78125 -1.640625 C 2.894531 -1.492188 2.953125 -1.300781 2.953125 -1.0625 C 2.953125 -0.863281 2.898438 -0.679688 2.796875 -0.515625 C 2.691406 -0.347656 2.539062 -0.210938 2.34375 -0.109375 C 2.15625 -0.015625 1.925781 0.03125 1.65625 0.03125 Z M 1.65625 0.03125 "/></g></g></g><g fill="#000000" fill-opacity="1"><g transform="translate(103.753336, 6.609996)"><g><path d="M 0.9375 -3.875 L 0.9375 0 L 0.421875 0 L 0.421875 -3.875 Z M 0.9375 -3.875 "/></g></g></g><g fill="#000000" fill-opacity="1"><g transform="translate(107.441279, 6.609996)"><g><path d="M 2.1875 0.03125 C 1.820312 0.03125 1.488281 -0.0507812 1.1875 -0.21875 C 0.894531 -0.382812 0.660156 -0.617188 0.484375 -0.921875 C 0.316406 -1.222656 0.234375 -1.5625 0.234375 -1.9375 C 0.234375 -2.320312 0.316406 -2.664062 0.484375 -2.96875 C 0.660156 -3.269531 0.894531 -3.503906 1.1875 -3.671875 C 1.488281 -3.835938 1.820312 -3.921875 2.1875 -3.921875 C 2.550781 -3.921875 2.878906 -3.835938 3.171875 -3.671875 C 3.472656 -3.503906 3.707031 -3.269531 3.875 -2.96875 C 4.050781 -2.664062 4.140625 -2.320312 4.140625 -1.9375 C 4.140625 -1.5625 4.050781 -1.222656 3.875 -0.921875 C 3.707031 -0.617188 3.472656 -0.382812 3.171875 -0.21875 C 2.878906 -0.0507812 2.550781 0.03125 2.1875 0.03125 Z M 2.1875 -0.40625 C 2.457031 -0.40625 2.703125 -0.46875 2.921875 -0.59375 C 3.140625 -0.71875 3.304688 -0.894531 3.421875 -1.125 C 3.546875 -1.363281 3.609375 -1.632812 3.609375 -1.9375 C 3.609375 -2.25 3.546875 -2.519531 3.421875 -2.75 C 3.304688 -2.988281 3.140625 -3.171875 2.921875 -3.296875 C 2.703125 -3.421875 2.457031 -3.484375 2.1875 -3.484375 C 1.914062 -3.484375 1.671875 -3.421875 1.453125 -3.296875 C 1.234375 -3.171875 1.0625 -2.988281 0.9375 -2.75 C 0.8125 -2.519531 0.75 -2.25 0.75 -1.9375 C 0.75 -1.632812 0.8125 -1.363281 0.9375 -1.125 C 1.0625 -0.894531 1.234375 -0.71875 1.453125 -0.59375 C 1.671875 -0.46875 1.914062 -0.40625 2.1875 -0.40625 Z M 2.1875 -0.40625 "/></g></g></g><g fill="#000000" fill-opacity="1"><g transform="translate(114.132986, 6.609996)"><g><path d="M 3.484375 0 L 2.96875 0 L 0.9375 -3.09375 L 0.9375 0 L 0.421875 0 L 0.421875 -3.875 L 0.9375 -3.875 L 2.96875 -0.796875 L 2.96875 -3.875 L 3.484375 -3.875 Z M 3.484375 0 "/></g></g></g></g></g></svg>